<?xml version="1.0" encoding="UTF-8" standalone="no"?>
<!-- Created with Inkscape (http://www.inkscape.org/) -->

<svg
   width="135.51382mm"
   height="17.737778mm"
   viewBox="0 0 135.51382 17.737778"
   version="1.1"
   id="svg5"
   inkscape:version="1.1 (c68e22c387, 2021-05-23)"
   sodipodi:docname="Polytron (2021).svg"
   xmlns:inkscape="http://www.inkscape.org/namespaces/inkscape"
   xmlns:sodipodi="http://sodipodi.sourceforge.net/DTD/sodipodi-0.dtd"
   xmlns="http://www.w3.org/2000/svg"
   xmlns:svg="http://www.w3.org/2000/svg">
  <sodipodi:namedview
     id="namedview7"
     pagecolor="#ffffff"
     bordercolor="#666666"
     borderopacity="1.0"
     inkscape:pageshadow="2"
     inkscape:pageopacity="0.0"
     inkscape:pagecheckerboard="0"
     inkscape:document-units="mm"
     showgrid="false"
     inkscape:zoom="0.47215208"
     inkscape:cx="365.34839"
     inkscape:cy="-200.14738"
     inkscape:window-width="1366"
     inkscape:window-height="715"
     inkscape:window-x="-8"
     inkscape:window-y="-8"
     inkscape:window-maximized="1"
     inkscape:current-layer="g7622" />
  <defs
     id="defs2" />
  <g
     inkscape:label="Layer 1"
     inkscape:groupmode="layer"
     id="layer1"
     transform="translate(122.07631,-237.3153)">
    <g
       id="g7622"
       transform="matrix(0.22662754,0,0,0.22662754,-94.410456,183.53312)">
      <path
         style="fill:#ee1c25;fill-opacity:1;stroke-width:0.352778"
         d="m 407.92184,313.51827 c -1.99302,-0.80428 -1.88984,1.28105 -1.88984,-38.19751 v -35.74448 c 0,-1.42138 0.72062,-2.26099 2.79016,-2.26099 h 17.98218 c 20.0716,0 22.32402,0.13376 27.51871,1.63416 11.98968,3.463 19.07134,11.86575 21.01134,24.93097 0.44982,3.02939 0.54761,7.62915 0.54761,25.75978 v 21.54269 c 0,2.01753 -1.89744,2.50879 -3.28916,2.50879 l -6.86241,0.1057 -8.44991,0.1057 c -1.03663,0 -2.16517,-0.98533 -2.16517,-2.35105 l -0.1391,-21.59614 c -0.15346,-23.82493 -0.12862,-23.54463 -2.06735,-27.42652 -1.27194,-2.54681 -4.12393,-4.94779 -6.89331,-5.80315 -2.04629,-0.63204 -3.27522,-0.7137 -10.74018,-0.7137 h -8.42952 l -0.0113,27.95764 c -0.012,29.55808 0.042,28.59101 -1.64129,29.48751 -0.91557,0.48765 -16.08145,0.54086 -17.27155,0.0606 z"
         id="path7518" />
      <path
         id="path7514"
         style="fill:#ee1c25;fill-opacity:1;stroke-width:0.352778"
         d="M 241.99034,311.27651 V 276.2145 c 0,-35.26548 0.007,-35.59819 0.71533,-36.35897 0.39342,-0.42229 1.08194,-0.85983 1.53003,-0.97229 0.4481,-0.11247 9.77029,-0.14017 20.71593,-0.0616 21.77164,0.15636 21.83376,0.16169 27.96642,2.39983 3.67443,1.34099 6.74084,3.37224 9.47603,6.27708 4.26738,4.53206 5.99352,9.29681 6.02368,16.6278 0.0215,5.20263 -0.57898,8.09693 -2.48817,11.99445 -1.80295,3.68061 -6.24082,8.12571 -10.05389,10.07026 -1.50453,0.76726 -2.6731,1.55377 -2.59687,1.7478 0.0762,0.19402 3.50189,5.27402 7.61256,11.28888 6.61998,9.6866 7.45081,11.05704 7.27153,11.99445 -0.11131,0.58208 -0.60826,1.41552 -1.10438,1.85208 -0.88571,0.77944 -1.06651,0.79375 -10.02569,0.79375 -5.01802,0 -9.35673,-0.0894 -9.64152,-0.19872 -0.28484,-0.10929 -3.89446,-5.26867 -8.02143,-11.46528 l -7.50351,-11.26655 h -4.70747 -4.70747 v 10.55197 10.0228 c -0.38985,1.45495 -1.59739,2.35578 -2.69998,2.35578 h -7.58476 -7.58479 c -1.27338,0 -2.21042,-1.16901 -2.59158,-2.59151 z m 39.79496,-36.99638 c 2.28529,-0.84195 4.0797,-2.23105 5.03378,-3.89677 0.73276,-1.27935 0.85563,-1.95145 0.85344,-4.66946 -0.004,-2.62861 -0.14149,-3.43615 -0.81018,-4.69251 -0.85524,-1.60685 -3.13059,-3.30551 -5.34872,-3.9931 -0.6858,-0.21258 -5.25533,-0.46777 -10.15453,-0.56709 l -8.90764,-0.18057 v 9.42615 9.42616 l 8.90764,-0.14667 c 6.9783,-0.11489 9.23657,-0.26784 10.42621,-0.70614 z" />
      <path
         style="fill:#ee1c25;fill-opacity:1;stroke-width:0.352778"
         d="M 189.42646,311.60708 V 284.42717 256.71808 H 179.00348 168.5805 l -0.86591,-0.86591 c -0.8633,-0.8633 -0.86587,-0.88749 -0.85469,-8.02569 0.0117,-7.49354 0.0807,-7.85848 1.64128,-8.68967 0.56867,-0.30287 8.73016,-0.4104 31.15015,-0.4104 33.28846,0 31.49614,-0.29975 32.59487,1.60331 0.16821,0.29135 0.21914,3.7403 0.21914,7.6138 0,7.00711 -0.004,7.04712 -0.86589,7.90865 -0.51396,0.6231 -0.77014,0.86591 -1.52875,0.86591 h -9.58375 -10.24661 v 26.99883 c 0,28.83969 0,28.85486 -1.71083,29.77 -0.4525,0.24217 -3.74967,0.38117 -9.04173,0.38117 h -7.80034 c -0.85054,0 -2.26098,-1.12881 -2.26098,-2.261 z"
         id="path7512" />
      <path
         style="fill:#ee1c25;fill-opacity:1;stroke-width:0.352778"
         d="m 113.93897,313.76772 c -1.70772,-0.86406 -1.76008,-1.30974 -1.76564,-15.02723 l -0.005,-12.83453 -13.052781,-21.47889 c -8.177805,-13.45692 -13.052778,-21.81626 -13.052778,-22.38219 0,-0.52802 0.428421,-1.33173 1.031198,-1.9345 0.717924,-0.91798 1.075903,-1.0312 2.160585,-1.0312 h 7.991474 c 7.504302,0 9.253712,0.093 9.870412,0.525 0.41224,0.28875 4.05316,6.40063 8.09091,13.58195 4.03776,7.18132 7.44381,13.05694 7.569,13.05694 0.12519,0 3.44614,-5.67531 7.37989,-12.6118 3.93375,-6.9365 7.55793,-13.04837 8.05374,-13.58195 l 0.90146,-0.97014 h 9.12226 9.12225 l 0.86591,0.86591 c 1.76177,1.76177 1.85868,1.56688 -12.18759,24.51307 l -13.05206,21.32203 v 13.18913 13.18914 l -1.03119,1.03119 -1.0312,1.0312 -8.05283,-0.005 c -5.75013,-0.004 -8.30303,-0.13179 -8.92782,-0.44792 z"
         id="path7510" />
      <path
         style="fill:#ee1c25;fill-opacity:1;stroke-width:0.352778"
         d="m 39.809191,313.69182 c -0.50679,-0.27543 -1.104632,-0.94377 -1.32854,-1.48518 -0.300517,-0.72666 -0.382542,-10.20577 -0.313284,-36.20458 l 0.09382,-34.16186 c 0.236826,-1.29416 1.076159,-2.56634 2.2948,-2.74547 1.093498,-0.12841 3.248264,-0.0155 7.982566,-0.0155 h 7.768575 c 1.41889,0 2.283407,1.44152 2.591559,2.59156 v 27.01464 27.5438 H 76.29969 93.700693 l 0.767052,0.81649 c 0.73629,0.78375 0.767048,1.10784 0.767048,8.08253 v 7.26604 l -1.085402,0.91331 -1.085398,0.9133 -26.166684,-0.0141 c -21.91289,-0.0118 -26.316473,-0.0955 -27.088118,-0.51492 z"
         id="path7508" />
      <path
         id="path7504"
         style="fill:#ee1c25;fill-opacity:1;stroke-width:0.352778"
         d="m -122.07631,311.6293 v -34.92507 -35.45424 c 0,-0.76325 0.89331,-2.21498 2.39295,-2.21498 l 18.2063,0.14457 c 19.643649,0.15598 20.071154,0.18306 25.099677,1.84827 8.850499,2.93087 14.905019,9.25926 16.995227,17.76399 0.78951,3.21238 0.774019,10.33772 -0.0296,13.62485 -2.417864,9.88985 -10.208672,16.74841 -21.918707,19.29591 -2.434858,0.52969 -5.128154,0.73639 -11.553472,0.88665 l -8.378465,0.19594 -0.002,8.68436 c -0.001,4.86328 -0.16167,9.25938 -0.36493,9.99123 -0.19963,0.71879 -0.77578,1.6316 -1.28033,2.02848 -0.86349,0.67932 -1.39142,0.7216 -9.01069,0.7216 h -7.03511 c -1.62676,0 -3.12085,-1.28105 -3.12085,-2.59156 z m 37.044315,-36.09371 c 3.870144,-1.77044 5.632597,-4.55205 5.638348,-8.8988 0.0018,-1.4327 -0.183247,-3.22803 -0.411427,-3.98963 -0.591157,-1.97311 -2.757149,-4.2721 -4.951695,-5.25576 -1.736619,-0.77839 -2.382827,-0.84475 -9.361903,-0.96142 l -7.496528,-0.12531 v 10.1148 10.1148 l 7.496528,-0.13563 c 6.646068,-0.12023 7.676924,-0.21814 9.086677,-0.86305 z" />
      <path
         id="path7500"
         style="fill:#ee1c25;fill-opacity:1;stroke-width:0.352778"
         d="m 349.44433,314.73363 c -9.04709,-1.70317 -16.31847,-5.58885 -22.30194,-11.91768 -5.13676,-5.43329 -8.14937,-11.2288 -9.67302,-18.60853 -1.06542,-5.16022 -0.83693,-13.04135 0.51971,-17.92668 3.81237,-13.7283 14.49956,-24.08406 28.67254,-27.78336 6.99851,-1.82668 16.98893,-1.48967 24.0489,0.81125 10.99079,3.58202 20.35616,12.30813 24.3641,22.70104 3.18703,8.26428 3.34081,19.09226 0.38608,27.1884 -4.54586,12.45595 -14.56055,21.43463 -27.77775,24.9042 -6.56627,1.03438 -11.44583,1.86343 -18.23862,0.63136 z m 11.43212,-18.16003 c 7.01834,-1.08904 13.11783,-6.83882 15.06351,-14.19987 0.77801,-2.94344 0.77117,-8.88208 -0.0138,-11.85345 -2.20109,-8.3334 -8.65615,-13.91453 -16.99733,-14.69617 -9.65168,-0.90443 -17.96679,4.98407 -20.4386,14.47402 -0.64241,2.46641 -0.72246,8.4746 -0.14898,11.18523 0.21752,1.02819 0.85591,2.89102 1.41862,4.13963 3.69052,8.18896 11.80275,12.39583 21.11644,10.95061 z"
         sodipodi:nodetypes="csssssssccsscssssss" />
      <path
         id="path7498"
         style="fill:#ee1c25;fill-opacity:1;stroke-width:0.352778"
         d="m -5.9882601,296.37193 c 6.2297555,-1.82984 10.8938833,-6.67685 12.8851338,-13.39035 0.771211,-2.60013 0.8764905,-9.01512 0.1936539,-11.79961 -1.7874827,-7.28904 -7.61367095,-13.20906 -14.4188811,-14.65111 -10.7605435,-2.28021 -20.5272245,3.6603 -23.1944995,14.10787 -0.706515,2.76737 -0.702448,8.93124 0.0077,11.65764 0.94858,3.64185 2.582858,6.5009 5.263338,9.20782 2.589636,2.61519 4.336856,3.71105 7.597732,4.76531 2.585329,0.83586 8.9777888,0.89199 11.6658319,0.10243 z m -13.4573319,18.7126 c -14.753844,-2.67172 -26.694447,-12.80742 -30.940522,-26.26367 -1.488345,-4.71672 -1.664406,-6.0464 -1.634868,-12.34722 0.02568,-5.47896 0.132115,-6.55888 0.945864,-9.59761 3.418032,-12.7637 12.972563,-22.8763 25.585303,-27.0797 5.331901,-1.77695 8.690723,-2.22588 15.244056,-2.03749 4.7304681,0.13599 6.4534946,0.33465 9.1982468,1.06053 7.8108348,2.06567 12.8653992,4.97356 18.4956942,10.64057 5.826213,5.86421 8.78334,11.33586 10.419721,19.27992 1.048614,5.09063 0.848413,12.659 -0.466975,17.65349 -3.937099,14.94907 -16.299719,25.99049 -32.1366471,28.70217 -3.8277975,0.65542 -11.0596749,0.65001 -14.7098729,-0.011 z" />
    </g>
  </g>
</svg>
